name C:\Users\tom_v\MusculoskeletalSpecialization\ResultsSprinting\Case_3\motion.mot
datacolumns 32
datarows 10
range 0.28761563 0.33938644
endheader 
time	pelvis_tilt	pelvis_list	pelvis_rotation	pelvis_tx	pelvis_ty	pelvis_tz	hip_flexion_r	hip_adduction_r	hip_rotation_r	knee_angle_r	ankle_angle_r	subtalar_angle_r	mtp_angle_r	hip_flexion_l	hip_adduction_l	hip_rotation_l	knee_angle_l	ankle_angle_l	subtalar_angle_l	mtp_angle_l	lumbar_extension	lumbar_bending	lumbar_rotation	arm_flex_r	arm_add_r	arm_rot_r	elbow_flex_r	arm_flex_l	arm_add_l	arm_rot_l	elbow_flex_l	
          0.28761563	        -12.94039869	          2.22100076	          0.27904579	          0.95776004	          0.87986233	          0.00040497	          2.90571540	         -1.91152880	          2.45486259	        -52.67965360	         -4.28689783	         17.40212988	         17.18854329	         46.76156347	          6.36352835	          1.11941946	        -38.73361490	         14.74760874	          2.52172832	          0.39758531	         -1.34218625	         -4.91441943	          4.07855312	         14.28950246	         -0.33271321	         19.05001987	          3.04401115	         -5.97419957	         -6.82435826	          4.84160679	         68.85306608	
          0.29336794	        -12.87727214	          2.16419876	          0.21408789	          0.97779551	          0.87707559	         -0.00001237	          3.89867403	         -1.96284512	          2.28159980	        -54.65710160	         -3.04640159	         17.19691499	         15.94942684	         46.06064276	          6.61801821	          1.56542909	        -40.08849296	         15.30666363	          1.79673470	          0.28960222	         -1.21181569	         -4.85156889	          3.89100670	         13.80216358	         -0.54373421	         18.76771887	          4.24869864	         -5.32251557	         -6.76237245	          5.38263401	         66.60825607	
          0.29912025	        -12.81977008	          2.11647749	          0.15723311	          0.99763186	          0.87435355	         -0.00044037	          5.02429258	         -2.00710996	          2.10963937	        -56.69813465	         -1.79475731	         16.91617480	         14.79776045	         45.38372572	          6.90526820	          2.00556477	        -41.50918147	         16.19868834	          1.00789548	          0.26196237	         -1.10062882	         -4.79432060	          3.68496375	         13.25541822	         -0.79813108	         18.36893950	          5.73135548	         -4.57180224	         -6.68580336	          5.97575982	         64.17788312	
          0.30487256	        -12.76923797	          2.08114756	          0.10705597	          1.01724366	          0.87179774	         -0.00087959	          6.27347895	         -2.04410333	          1.95129393	        -58.76791767	         -0.54154999	         16.56486350	         13.72371466	         44.71943379	          7.23570161	          2.46568986	        -42.96653773	         17.39014126	          0.24882905	          0.41932699	         -1.01171077	         -4.74486735	          3.46434324	         12.64509278	         -1.09392588	         17.84886038	          7.50563091	         -3.71038303	         -6.59007989	          6.62737849	         61.53909500	
          0.31062488	        -12.72626701	          2.05084150	          0.06007716	          1.03664014	          0.86948913	         -0.00132638	          7.62919470	         -2.06757604	          1.80361151	        -60.81816720	          0.71565328	         16.14884816	         12.72074928	         44.02038805	          7.59134556	          2.94183829	        -44.36247064	         18.73621679	         -0.47504652	          0.85568288	         -0.94413926	         -4.69202376	          3.23290168	         11.96586560	         -1.42757167	         17.21250477	          9.57487553	         -2.73673962	         -6.46807860	          7.33998848	         58.67655368	
          0.31637719	        -12.69135380	          2.01516839	          0.01457330	          1.05583895	          0.86747920	         -0.00177443	          9.07428160	         -2.06975346	          1.65687181	        -62.80401915	          1.98267459	         15.67534009	         11.78491123	         43.24594826	          7.94691434	          3.42464425	        -45.60537624	         20.05958206	         -1.17496658	          1.56316342	         -0.89634621	         -4.62248964	          2.99209201	         11.21350206	         -1.79346282	         16.47010393	         11.93578025	         -1.65557613	         -6.31315950	          8.11374883	         55.58823671	
          0.32212950	        -12.66493405	          1.96857507	         -0.02878172	          1.07485366	          0.86579526	         -0.00221499	         10.59473632	         -2.04705748	          1.50241146	        -64.69280832	          3.26249620	         15.15215635	         10.91340403	         42.38200106	          8.28168934	          3.90062776	        -46.65719305	         21.26367794	         -1.84270153	          2.48134299	         -0.86746837	         -4.53059655	          2.74160258	         10.38663252	         -2.18300583	         15.63564053	         14.57790397	         -0.47440791	         -6.12139880	          8.94832424	         52.28441213	
          0.32788181	        -12.64715802	          1.90872001	         -0.06812291	          1.09369732	          0.86444766	         -0.00264039	         12.17836574	         -1.99857677	          1.33404908	        -66.46135029	          4.55374765	         14.58682601	         10.10292875	         41.43022783	          8.58132807	          4.35863174	        -47.51392627	         22.31453938	         -2.46182609	          3.56711233	         -0.85680266	         -4.41516810	          2.48075170	          9.48718666	         -2.58622033	         14.72784097	         17.48192730	          0.79662546	         -5.89019976	          9.84271158	         48.78430862	
          0.33363413	        -12.63777286	          1.83268211	         -0.10244668	          1.11238402	          0.86343550	         -0.00304557	         13.81409352	         -1.92274150	          1.14871650	        -68.09274516	          5.85272943	         13.98712663	          9.34953388	         40.39676961	          8.83463691	          4.79347129	        -48.18396029	         23.20806216	         -3.01690073	          4.79531978	         -0.86377322	         -4.27396741	          2.21057321	          8.52070140	         -2.99405921	         13.76967401	         20.61960254	          2.14458471	         -5.61657224	         10.79418811	         45.11452705	
          0.33938644	        -12.63638188	          1.73798603	         -0.13130132	          1.13093033	          0.86275095	         -0.00342787	         15.49151285	         -1.81879777	          0.94503037	        -69.57474526	          7.15544632	         13.36055312	          8.64929297	         39.28753165	          9.03291775	          5.20166355	        -48.67674680	         23.94950396	         -3.49702483	          6.14889945	         -0.88746562	         -4.10478500	          1.93253646	          7.49658060	         -3.39843269	         12.78608243	         23.95394485	          3.55272752	         -5.29786428	         11.79611989	         41.30966210	
